<svg xmlns="http://www.w3.org/2000/svg" viewBox="0 0 640 260" width="640" font-family="Segoe UI,Helvetica,Arial,sans-serif"><rect x="0" y="0" width="640" height="260" rx="12" fill="#101b1e" stroke="#1f3238"/><text x="20" y="28" fill="#e6f2f2" font-size="15" font-weight="600">Physical-layer proof: real radio reception</text><text x="20" y="46" fill="#90a9ad" font-size="12">RSSI of 205 LoRa frames from OMEGA nodes (915 MHz)</text><line x1="46" y1="214" x2="616" y2="214" stroke="#3a5258"/><rect x="46.0" y="212.9" width="44.5" height="1.1" fill="#BA7517" rx="2"/><rect x="93.5" y="214.0" width="44.5" height="0.0" fill="#BA7517" rx="2"/><rect x="141.0" y="214.0" width="44.5" height="0.0" fill="#BA7517" rx="2"/><rect x="188.5" y="214.0" width="44.5" height="0.0" fill="#BA7517" rx="2"/><rect x="236.0" y="214.0" width="44.5" height="0.0" fill="#BA7517" rx="2"/><rect x="283.5" y="214.0" width="44.5" height="0.0" fill="#BA7517" rx="2"/><rect x="331.0" y="214.0" width="44.5" height="0.0" fill="#BA7517" rx="2"/><rect x="378.5" y="214.0" width="44.5" height="0.0" fill="#BA7517" rx="2"/><rect x="426.0" y="214.0" width="44.5" height="0.0" fill="#BA7517" rx="2"/><rect x="473.5" y="135.6" width="44.5" height="78.4" fill="#BA7517" rx="2"/><rect x="521.0" y="64.0" width="44.5" height="150.0" fill="#BA7517" rx="2"/><rect x="568.5" y="210.6" width="44.5" height="3.4" fill="#BA7517" rx="2"/><text x="70" y="229" fill="#8aa0a4" font-size="9" text-anchor="middle">-89</text><text x="212" y="229" fill="#8aa0a4" font-size="9" text-anchor="middle">-74</text><text x="355" y="229" fill="#8aa0a4" font-size="9" text-anchor="middle">-60</text><text x="497" y="229" fill="#8aa0a4" font-size="9" text-anchor="middle">-45</text><text x="331" y="252" fill="#90a9ad" font-size="11" text-anchor="middle">RSSI (dBm), stronger to the right</text></svg>