<svg xmlns="http://www.w3.org/2000/svg" viewBox="0 0 640 320" width="640" font-family="Segoe UI,Helvetica,Arial,sans-serif"><rect x="0" y="0" width="640" height="320" rx="12" fill="#101b1e" stroke="#1f3238"/><text x="20" y="28" fill="#e6f2f2" font-size="15" font-weight="600">Validated against the NOAA network</text><text x="20" y="46" fill="#90a9ad" font-size="12">Each dot is a station: observed vs OMEGA's served model (r = 0.97)</text><line x1="56" y1="264" x2="584" y2="264" stroke="#3a5258"/><line x1="56" y1="64" x2="56" y2="264" stroke="#3a5258"/><line x1="56" y1="264" x2="584" y2="80" stroke="#5a6b6a" stroke-dasharray="5 4"/><circle cx="249.6" cy="217.7" r="5" fill="#85B7EB" opacity=".92"/><circle cx="152.8" cy="250.0" r="5" fill="#85B7EB" opacity=".92"/><circle cx="306.8" cy="195.4" r="5" fill="#85B7EB" opacity=".92"/><circle cx="293.6" cy="198.4" r="5" fill="#85B7EB" opacity=".92"/><circle cx="183.6" cy="230.4" r="5" fill="#85B7EB" opacity=".92"/><circle cx="183.6" cy="224.9" r="5" fill="#85B7EB" opacity=".92"/><circle cx="135.2" cy="232.2" r="5" fill="#85B7EB" opacity=".92"/><circle cx="135.2" cy="232.2" r="5" fill="#85B7EB" opacity=".92"/><circle cx="544.4" cy="96.9" r="5" fill="#85B7EB" opacity=".92"/><circle cx="192.4" cy="214.0" r="5" fill="#85B7EB" opacity=".92"/><circle cx="95.6" cy="251.8" r="5" fill="#85B7EB" opacity=".92"/><circle cx="240.8" cy="198.4" r="5" fill="#85B7EB" opacity=".92"/><text x="100" y="280" fill="#8aa0a4" font-size="10" text-anchor="middle">10</text><text x="48" y="252" fill="#8aa0a4" font-size="10" text-anchor="end">10</text><text x="276" y="280" fill="#8aa0a4" font-size="10" text-anchor="middle">14</text><text x="48" y="190" fill="#8aa0a4" font-size="10" text-anchor="end">14</text><text x="452" y="280" fill="#8aa0a4" font-size="10" text-anchor="middle">18</text><text x="48" y="129" fill="#8aa0a4" font-size="10" text-anchor="end">18</text><text x="320" y="312" fill="#90a9ad" font-size="11" text-anchor="middle">observed NOAA / CO-OPS (degC)</text><text x="16" y="160" fill="#90a9ad" font-size="11" text-anchor="middle" transform="rotate(-90 16 160)">OMEGA model (degC)</text><text x="232" y="126" fill="#5a6b6a" font-size="11">1:1 (perfect)</text></svg>