<svg xmlns="http://www.w3.org/2000/svg" viewBox="0 0 640 300" width="640" font-family="Segoe UI,Helvetica,Arial,sans-serif"><rect x="0" y="0" width="640" height="300" rx="12" fill="#101b1e" stroke="#1f3238"/><text x="20" y="28" fill="#e6f2f2" font-size="15" font-weight="600">What OMEGA INGESTED, then its analysis flagged</text><text x="20" y="46" fill="#90a9ad" font-size="12">NOAA buoy 46013 wave height; OMEGA's changepoint detector found the drop</text><path d="M 50.0 123.0 L 52.8 116.4 L 54.7 123.0 L 55.6 123.0 L 57.5 116.4 L 58.4 116.4 L 60.3 129.5 L 61.2 129.5 L 63.1 136.1 L 64.0 136.1 L 66.8 129.5 L 68.7 129.5 L 69.6 129.5 L 71.5 129.5 L 72.4 129.5 L 75.2 129.5 L 78.0 136.1 L 80.8 129.5 L 82.7 129.5 L 83.6 129.5 L 86.4 129.5 L 89.2 142.6 L 92.0 136.1 L 93.9 136.1 L 94.8 136.1 L 96.7 136.1 L 97.6 136.1 L 99.5 142.6 L 100.4 142.6 L 103.2 103.3 L 105.1 116.4 L 106.0 116.4 L 108.8 103.3 L 110.7 103.3 L 111.6 103.3 L 114.4 103.3 L 116.3 116.4 L 117.2 116.4 L 119.1 103.3 L 120.0 103.3 L 122.9 90.2 L 125.7 83.7 L 127.5 90.2 L 128.5 90.2 L 131.3 96.8 L 134.1 90.2 L 135.9 116.4 L 136.9 116.4 L 138.7 64.0 L 139.7 64.0 L 142.5 96.8 L 145.3 96.8 L 148.1 90.2 L 150.9 96.8 L 153.7 116.4 L 156.5 103.3 L 159.3 116.4 L 162.1 129.5 L 164.9 116.4 L 166.7 129.5 L 167.7 129.5 L 170.5 142.6 L 172.4 129.5 L 173.3 129.5 L 175.2 136.1 L 176.1 136.1 L 178.0 142.6 L 178.9 142.6 L 181.7 136.1 L 183.6 149.2 L 184.5 149.2 L 186.4 162.3 L 187.3 162.3 L 189.2 149.2 L 190.1 149.2 L 192.9 149.2 L 194.8 142.6 L 195.7 142.6 L 198.5 162.3 L 200.4 155.7 L 201.3 155.7 L 203.2 168.8 L 204.1 168.8 L 206.9 149.2 L 208.8 149.2 L 209.7 149.2 L 212.5 155.7 L 215.3 155.7 L 218.1 162.3 L 220.9 175.4 L 222.8 168.8 L 223.7 168.8 L 226.5 168.8 L 228.4 155.7 L 229.3 155.7 L 232.1 168.8 L 234.9 175.4 L 237.7 162.3 L 239.6 168.8 L 240.5 168.8 L 243.3 168.8 L 245.2 175.4 L 246.1 175.4 L 248.9 175.4 L 251.7 175.4 L 254.5 181.9 L 256.4 175.4 L 257.3 175.4 L 260.1 162.3 L 263.0 175.4 L 265.8 181.9 L 267.6 188.5 L 268.6 188.5 L 271.4 181.9 L 274.2 175.4 L 277.0 175.4 L 278.8 188.5 L 279.8 188.5 L 282.6 181.9 L 284.4 188.5 L 285.4 188.5 L 288.2 188.5 L 290.0 195.0 L 291.0 195.0 L 292.8 188.5 L 293.8 188.5 L 295.6 201.6 L 296.6 201.6 L 298.4 201.6 L 299.4 201.6 L 301.2 195.0 L 302.2 195.0 L 305.0 195.0 L 306.8 188.5 L 307.8 188.5 L 310.6 201.6 L 312.5 195.0 L 313.4 195.0 L 316.2 201.6 L 318.1 201.6 L 319.0 201.6 L 321.8 214.7 L 323.7 214.7 L 324.6 214.7 L 326.5 214.7 L 327.4 214.7 L 329.3 208.1 L 330.2 208.1 L 332.1 214.7 L 333.0 214.7 L 334.9 201.6 L 335.8 201.6 L 338.6 201.6 L 341.4 214.7 L 344.2 208.1 L 346.1 208.1 L 347.0 208.1 L 349.8 214.7 L 352.6 221.2 L 354.5 221.2 L 355.4 221.2 L 357.3 221.2 L 358.2 221.2 L 361.0 214.7 L 363.8 221.2 L 366.6 214.7 L 368.5 227.8 L 369.4 227.8 L 371.3 221.2 L 372.2 221.2 L 374.1 221.2 L 375.0 221.2 L 377.8 221.2 L 379.7 227.8 L 380.6 227.8 L 383.4 234.3 L 385.3 234.3 L 386.2 234.3 L 389.0 221.2 L 390.9 227.8 L 391.8 227.8 L 394.6 227.8 L 397.4 221.2 L 399.3 227.8 L 400.2 227.8 L 402.1 227.8 L 403.0 227.8 L 405.9 234.3 L 407.7 227.8 L 408.7 227.8 L 410.5 227.8 L 411.5 227.8 L 413.3 227.8 L 414.3 227.8 L 417.1 234.3 L 425.5 227.8 L 428.3 227.8 L 430.1 227.8 L 431.1 227.8 L 432.9 221.2 L 433.9 221.2 L 435.7 234.3 L 436.7 234.3 L 439.5 234.3 L 441.3 234.3 L 442.3 234.3 L 445.1 227.8 L 446.9 234.3 L 447.9 234.3 L 449.7 227.8 L 450.7 227.8 L 452.6 234.3 L 453.5 234.3 L 456.3 227.8 L 458.2 221.2 L 459.1 221.2 L 461.0 227.8 L 461.9 227.8 L 463.8 234.3 L 464.7 234.3 L 466.6 227.8 L 467.5 227.8 L 469.4 227.8 L 470.3 227.8 L 473.1 227.8 L 475.0 214.7 L 475.9 214.7 L 478.7 214.7 L 480.6 221.2 L 481.5 221.2 L 484.3 227.8 L 486.2 214.7 L 487.1 214.7 L 489.9 227.8 L 491.8 221.2 L 492.7 221.2 L 494.6 208.1 L 495.5 208.1 L 498.3 214.7 L 501.1 221.2 L 503.0 221.2 L 503.9 221.2 L 506.7 227.8 L 509.5 227.8 L 512.3 221.2 L 514.2 240.9 L 515.1 240.9 L 517.9 234.3 L 520.7 234.3 L 523.5 240.9 L 525.4 234.3 L 526.3 234.3 L 529.1 247.4 L 531.0 247.4 L 531.9 247.4 L 533.8 240.9 L 534.7 240.9 L 536.6 247.4 L 537.5 247.4 L 539.4 247.4 L 540.3 247.4 L 542.2 240.9 L 543.1 240.9 L 545.0 240.9 L 546.0 240.9 L 548.8 247.4 L 551.6 227.8 L 553.4 247.4 L 554.4 247.4 L 557.2 240.9 L 560.0 240.9 L 562.8 234.3 L 565.6 247.4 L 567.4 247.4 L 568.4 247.4 L 570.2 234.3 L 571.2 234.3 L 573.0 240.9 L 574.0 240.9 L 576.8 240.9 L 578.6 247.4 L 579.6 247.4 L 581.4 247.4 L 582.4 247.4 L 585.2 240.9 L 587.0 247.4 L 588.0 247.4 L 590.8 240.9 L 593.6 254.0 L 596.4 247.4 L 598.3 247.4 L 599.2 247.4 L 602.0 247.4 L 604.8 234.3 L 606.7 240.9 L 607.6 240.9 L 609.5 240.9 L 610.4 240.9 L 613.2 234.3 L 616.0 234.3" fill="none" stroke="#5fa8c7" stroke-width="1.3" opacity=".8"/><line x1="50" y1="140.0" x2="-225.9" y2="140.0" stroke="#1D9E75" stroke-width="2"/><line x1="-225.9" y1="190.2" x2="616" y2="190.2" stroke="#F0997B" stroke-width="2"/><line x1="-225.9" y1="64" x2="-225.9" y2="254" stroke="#FAC775" stroke-dasharray="4 4"/><text x="-226" y="58" fill="#FAC775" font-size="12" text-anchor="middle">OMEGA flagged shift, Jun 8</text><line x1="50" y1="254" x2="616" y2="254" stroke="#3a5258"/><text x="42" y="264" fill="#8aa0a4" font-size="10" text-anchor="end">1</text><text x="42" y="198" fill="#8aa0a4" font-size="10" text-anchor="end">2</text><text x="42" y="133" fill="#8aa0a4" font-size="10" text-anchor="end">3</text><text x="16" y="159" fill="#90a9ad" font-size="11" text-anchor="middle" transform="rotate(-90 16 159)">wave height (m)</text><text x="333" y="290" fill="#90a9ad" font-size="11" text-anchor="middle">mean 2.84 m (teal) drops to 2.07 m (coral), p &lt; 0.05</text></svg>