<svg xmlns="http://www.w3.org/2000/svg" viewBox="0 0 640 300" width="640" font-family="Segoe UI,Helvetica,Arial,sans-serif"><rect x="0" y="0" width="640" height="300" rx="12" fill="#101b1e" stroke="#1f3238"/><text x="20" y="28" fill="#e6f2f2" font-size="15" font-weight="600">What OMEGA's OWN sensor caught</text><text x="20" y="46" fill="#90a9ad" font-size="12">Power spectrum of OMEGA's bench barometer, 104,939 readings</text><line x1="56" y1="250" x2="616" y2="250" stroke="#3a5258"/><line x1="56" y1="64" x2="56" y2="250" stroke="#3a5258"/><path d="M 64.1 250.0 L 68.0 246.0 L 72.3 209.2 L 77.1 234.2 L 83.0 247.4 L 89.9 232.4 L 93.7 226.3 L 107.7 226.7 L 119.6 226.0 L 127.0 211.9 L 144.3 225.6 L 155.0 202.9 L 167.5 205.5 L 182.3 233.8 L 200.1 180.6 L 221.7 175.9 L 248.7 146.7 L 283.6 71.7 L 329.9 64.0 L 394.8 122.8 L 492.3 87.6 L 590.5 103.4 L 590.5 250 L 64.1 250 Z" fill="rgba(29,158,117,.14)"/><path d="M 64.1 250.0 L 68.0 246.0 L 72.3 209.2 L 77.1 234.2 L 83.0 247.4 L 89.9 232.4 L 93.7 226.3 L 107.7 226.7 L 119.6 226.0 L 127.0 211.9 L 144.3 225.6 L 155.0 202.9 L 167.5 205.5 L 182.3 233.8 L 200.1 180.6 L 221.7 175.9 L 248.7 146.7 L 283.6 71.7 L 329.9 64.0 L 394.8 122.8 L 492.3 87.6 L 590.5 103.4" fill="none" stroke="#1D9E75" stroke-width="2"/><circle cx="329.9" cy="64.0" r="4" fill="#FAC775"/><line x1="329.9" y1="70.0" x2="329.9" y2="250" stroke="#FAC775" stroke-dasharray="3 3"/><text x="330" y="56" fill="#FAC775" font-size="12" text-anchor="middle">12 h peak (S2 tide)</text><text x="56" y="266" fill="#8aa0a4" font-size="10" text-anchor="middle">2h</text><text x="158" y="266" fill="#8aa0a4" font-size="10" text-anchor="middle">6h</text><text x="311" y="266" fill="#8aa0a4" font-size="10" text-anchor="middle">12h</text><text x="463" y="266" fill="#8aa0a4" font-size="10" text-anchor="middle">18h</text><text x="616" y="266" fill="#8aa0a4" font-size="10" text-anchor="middle">24h</text><text x="336" y="290" fill="#90a9ad" font-size="11" text-anchor="middle">period (hours)</text><text x="16" y="157" fill="#90a9ad" font-size="11" text-anchor="middle" transform="rotate(-90 16 157)">power (log)</text></svg>